<svg xmlns="http://www.w3.org/2000/svg" width="21" height="20" fill="none"><path fill="#fff" d="M9.276 11.728c-.511.554-1.005 1.086-1.498 1.622a2360.636 2360.636 0 0 0-4.128 4.495.434.434 0 0 1-.362.155c-.369-.011-.738-.004-1.162-.004L8.673 10.9c-2.18-2.96-4.35-5.906-6.55-8.889h.234c1.454 0 2.911.004 4.365-.004.157 0 .252.045.347.174C8.476 4.088 9.894 5.995 11.304 7.9c.018.022.04.044.07.077.31-.332.61-.661.912-.986 1.436-1.564 2.88-3.116 4.304-4.683.201-.218.391-.33.687-.303.296.026.592.007.939.007l-6.244 6.786c2.269 3.056 4.534 6.11 6.818 9.188-.085.004-.143.011-.201.011-1.506 0-3.007 0-4.512.004a.318.318 0 0 1-.289-.144c-1.461-1.993-2.926-3.98-4.391-5.97-.033-.047-.07-.092-.12-.158ZM4.198 3.042c.055.074.077.111.102.144.987 1.327 1.973 2.654 2.963 3.981 2.382 3.2 4.764 6.398 7.142 9.598a.29.29 0 0 0 .26.13c.632-.004 1.268-.004 1.9-.004.05 0 .105-.007.179-.011-.037-.06-.059-.1-.088-.137-2.024-2.731-4.044-5.462-6.068-8.197L6.605 3.168a.28.28 0 0 0-.255-.13c-.53.004-1.06.004-1.59.004h-.562Z"/></svg>