<svg xmlns="http://www.w3.org/2000/svg" version="1.1" xmlns:xlink="http://www.w3.org/1999/xlink" xmlns:svgjs="http://svgjs.dev/svgjs" width="1920" height="300" preserveAspectRatio="none" viewBox="0 0 1920 300"><g mask="url(&quot;#SvgjsMask1025&quot;)" fill="none"><rect width="1920" height="300" x="0" y="0" fill="#0e2a47"></rect><path d="M0,705.697C128.373,678.915,231.405,600.229,350.586,545.522C493.6,479.875,709.195,496.809,770.652,351.945C832.59,205.949,666.039,62.591,619.826,-89.117C582.368,-212.084,592.201,-345.307,524.895,-454.824C449.94,-576.786,358.572,-715.195,218.101,-742.783C77.91,-770.316,-42.682,-648.698,-173.842,-592.053C-287.071,-543.151,-402.832,-509.405,-499.535,-432.849C-613.186,-342.875,-744.606,-252.711,-780.032,-112.152C-816.295,31.728,-741.491,175.784,-687.795,314.106C-631.032,460.331,-595.462,636.845,-459.151,714.453C-323.372,791.758,-152.95,737.606,0,705.697" fill="#0b2035"></path><path d="M1920 1082.476C2076.618 1112.37 2259.68 1122.107 2384.909 1023.413 2509.44 925.27 2494.7889999999998 736.217 2548.601 587.072 2597.112 452.618 2692.107 332.709 2685.634 189.918 2678.873 40.766999999999996 2613.114-103.101 2512.322-213.25 2412.938-321.86 2267.956-364.15200000000004 2130.468-416.78700000000003 1981.116-473.96400000000006 1830.732-570.924 1675.195-533.729 1518.194-496.18399999999997 1398.967-361.51 1317.225-222.308 1242.902-95.74099999999999 1261.028 56.994 1242.788 202.632 1224.937 345.165 1149.78 493.846 1211.271 623.6659999999999 1272.667 753.2850000000001 1436.288 787.3879999999999 1556.685 865.33 1677.569 943.587 1778.55 1055.4769999999999 1920 1082.476" fill="#123559"></path></g><defs><mask id="SvgjsMask1025"><rect width="1920" height="300" fill="#ffffff"></rect></mask></defs></svg>